<?xml version="1.0" encoding="UTF-8"?>
<svg id="Calque_1" data-name="Calque 1" xmlns="http://www.w3.org/2000/svg" xmlns:xlink="http://www.w3.org/1999/xlink" viewBox="0 0 1000 331">
  <defs>
    <style>
      .cls-1 {
        clip-path: url(#clippath-4);
      }

      .cls-1, .cls-2, .cls-3, .cls-4, .cls-5, .cls-6, .cls-7, .cls-8, .cls-9, .cls-10, .cls-11, .cls-12, .cls-13, .cls-14, .cls-15, .cls-16, .cls-17, .cls-18, .cls-19, .cls-20, .cls-21, .cls-22, .cls-23, .cls-24, .cls-25, .cls-26, .cls-27, .cls-28, .cls-29, .cls-30, .cls-31, .cls-32, .cls-33, .cls-34, .cls-35 {
        fill: none;
      }

      .cls-36 {
        fill: url(#Dégradé_sans_nom_20);
      }

      .cls-2 {
        clip-path: url(#clippath-2);
      }

      .cls-37 {
        fill: #fff;
      }

      .cls-3 {
        clip-path: url(#clippath-6);
      }

      .cls-4 {
        clip-path: url(#clippath-9);
      }

      .cls-38 {
        fill: url(#Dégradé_sans_nom_2);
      }

      .cls-39 {
        fill: url(#Dégradé_sans_nom_29);
      }

      .cls-5 {
        clip-path: url(#clippath-12);
      }

      .cls-6 {
        clip-path: url(#clippath-32);
      }

      .cls-7 {
        clip-path: url(#clippath-13);
      }

      .cls-40 {
        fill: url(#Dégradé_sans_nom_24-2);
      }

      .cls-41 {
        fill: url(#Dégradé_sans_nom_9-3);
      }

      .cls-42 {
        fill: url(#Dégradé_sans_nom_31);
      }

      .cls-43 {
        fill: url(#Dégradé_sans_nom_9-2);
      }

      .cls-44 {
        fill: url(#Dégradé_sans_nom_20-7);
      }

      .cls-45 {
        fill: url(#Dégradé_sans_nom_20-9);
      }

      .cls-8 {
        clip-path: url(#clippath-21);
      }

      .cls-9 {
        clip-path: url(#clippath-28);
      }

      .cls-46 {
        fill: url(#Dégradé_sans_nom_9-4);
      }

      .cls-47 {
        fill: url(#Dégradé_sans_nom_4-3);
      }

      .cls-10 {
        clip-path: url(#clippath-7);
      }

      .cls-11 {
        clip-path: url(#clippath-18);
      }

      .cls-12 {
        clip-path: url(#clippath-27);
      }

      .cls-48 {
        fill: url(#Dégradé_sans_nom_9-5);
      }

      .cls-13 {
        clip-path: url(#clippath-10);
      }

      .cls-14 {
        clip-path: url(#clippath-22);
      }

      .cls-15 {
        clip-path: url(#clippath-5);
      }

      .cls-16 {
        clip-path: url(#clippath-24);
      }

      .cls-49 {
        fill: url(#Dégradé_sans_nom_26);
      }

      .cls-17 {
        clip-path: url(#clippath-26);
      }

      .cls-50 {
        fill: url(#Dégradé_sans_nom_20-6);
      }

      .cls-51 {
        fill: url(#Dégradé_sans_nom_24-3);
      }

      .cls-52 {
        fill: #1d3d90;
      }

      .cls-18 {
        clip-path: url(#clippath-31);
      }

      .cls-53 {
        fill: url(#Dégradé_sans_nom_25);
      }

      .cls-54 {
        fill: url(#Dégradé_sans_nom_21);
      }

      .cls-19 {
        clip-path: url(#clippath-16);
      }

      .cls-20 {
        clip-path: url(#clippath-15);
      }

      .cls-21 {
        clip-path: url(#clippath-3);
      }

      .cls-22 {
        clip-path: url(#clippath-11);
      }

      .cls-23 {
        clip-path: url(#clippath-29);
      }

      .cls-55 {
        fill: url(#Dégradé_sans_nom_24);
      }

      .cls-24 {
        clip-path: url(#clippath-33);
      }

      .cls-25 {
        clip-path: url(#clippath-19);
      }

      .cls-56 {
        fill: url(#Dégradé_sans_nom_27);
      }

      .cls-57 {
        fill: url(#Dégradé_sans_nom_20-5);
      }

      .cls-27 {
        clip-path: url(#clippath-20);
      }

      .cls-28 {
        clip-path: url(#clippath-23);
      }

      .cls-29 {
        clip-path: url(#clippath-17);
      }

      .cls-58 {
        fill: url(#Dégradé_sans_nom_4);
      }

      .cls-59 {
        fill: url(#Dégradé_sans_nom_20-3);
      }

      .cls-60 {
        fill: #70c6d4;
      }

      .cls-61 {
        fill: url(#Dégradé_sans_nom_20-4);
      }

      .cls-30 {
        clip-path: url(#clippath);
      }

      .cls-62 {
        fill: #6bc5d9;
      }

      .cls-63 {
        fill: url(#Dégradé_sans_nom_20-2);
      }

      .cls-64 {
        fill: url(#Dégradé_sans_nom_9);
      }

      .cls-65 {
        fill: url(#Dégradé_sans_nom_4-2);
      }

      .cls-66 {
        fill: #1a1a1a;
      }

      .cls-67 {
        fill: url(#Dégradé_sans_nom_28);
      }

      .cls-31 {
        clip-path: url(#clippath-1);
      }

      .cls-32 {
        clip-path: url(#clippath-8);
      }

      .cls-33 {
        clip-path: url(#clippath-25);
      }

      .cls-34 {
        clip-path: url(#clippath-14);
      }

      .cls-68 {
        fill: url(#Dégradé_sans_nom_23);
      }

      .cls-35 {
        clip-path: url(#clippath-30);
      }

      .cls-69 {
        fill: url(#Dégradé_sans_nom_10);
      }

      .cls-70 {
        fill: url(#Dégradé_sans_nom_30);
      }

      .cls-71 {
        fill: url(#Dégradé_sans_nom_20-8);
      }
    </style>
    <clipPath id="clippath">
      <path class="cls-26" d="m177.32,233.12c-1.81-.8-8.05-3.63-13.85-7.36-13.21-8.5-21.21-19.89-23.61-23.24-4.77-6.68-12.04-18.91-15.23-37.23-3.53-20.01-7.06-40.02-10.59-60.03,4.45-.7,15.29-3.02,25.38-11.92,9.44-8.33,13.18-17.97,14.57-22.29,22.51-.22,45.02-.44,67.53-.66,1.9,4.65,6.31,13.68,15.67,21.63,9.73,8.26,19.79,11.09,24.72,12.14-2.43,19.29-4.86,38.58-7.28,57.87-2.22,10.5-7.92,30.51-23.83,50.27-14.33,17.78-30.48,21.14-39.87,25.81-3.68-1.08-8.35-2.66-13.59-4.99m-26.78-171.04c-1.54,4.79-5.68,15.49-16.16,24.73-11.19,9.87-23.22,12.44-28.16,13.22,3.92,22.2,7.84,44.4,11.75,66.61,3.55,20.32,11.61,33.9,16.91,41.31,3.59,5.03,12.48,16.79,26.19,25.79,5.41,3.55,11.23,6.45,13.01,7.33,6.76,3.32,12.79,5.55,17.44,7.05,5.38-1.79,12.23-4.95,20.07-9.2,7.77-4.21,16.22-10.25,24.17-20.11,17.66-21.92,23.98-44.12,26.45-55.78,2.69-21.4,5.39-42.81,8.08-64.21-5.47-1.16-16.63-4.3-27.43-13.47-10.39-8.82-15.28-18.84-17.39-24-24.98.24-49.95.49-74.93.73"/>
    </clipPath>
    <linearGradient id="Dégradé_sans_nom_2" data-name="Dégradé sans nom 2" x1="79.48" y1="520.11" x2="79.9" y2="520.11" gradientTransform="translate(-30582.4 200983.42) scale(386.13 -386.13)" gradientUnits="userSpaceOnUse">
      <stop offset="0" stop-color="#27367e"/>
      <stop offset=".4" stop-color="#27367e"/>
      <stop offset=".42" stop-color="#283a81"/>
      <stop offset=".62" stop-color="#3b74b0"/>
      <stop offset=".79" stop-color="#489ed1"/>
      <stop offset=".92" stop-color="#50b8e6"/>
      <stop offset="1" stop-color="#54c2ee"/>
      <stop offset="1" stop-color="#54c2ee"/>
    </linearGradient>
    <clipPath id="clippath-1">
      <path class="cls-26" d="m157.63,189.95c-1.32.58-2.35,1.38-3.1,2.39-.74,1.01-1.19,2.07-1.34,3.16-.15,1.09-.23,2.74-.23,4.93v8.88c0,2.98.24,5.21.73,6.69.49,1.48,1.48,2.64,2.98,3.48,1.5.84,3.41,1.26,5.72,1.26s4.1-.5,5.62-1.48c1.52-.99,2.5-2.14,2.95-3.46.44-1.32.67-3.55.67-6.69v-1.18h-7.9v3.82c0,1.67-.09,2.73-.27,3.18-.18.45-.57.68-1.15.68s-1.01-.22-1.18-.68c-.18-.45-.26-1.41-.26-2.89v-14.11c0-1.54.09-2.54.26-3,.18-.46.59-.69,1.24-.69.58,0,.95.19,1.12.57.17.38.25,1.34.25,2.88v5.28h7.9v-2.89c0-2.84-.24-4.93-.71-6.27-.48-1.34-1.47-2.46-2.98-3.36-1.51-.9-3.43-1.35-5.76-1.35-1.71,0-3.23.29-4.55.87"/>
    </clipPath>
    <linearGradient id="Dégradé_sans_nom_4" data-name="Dégradé sans nom 4" x1="77.75" y1="512.33" x2="78.18" y2="512.33" gradientTransform="translate(3007.59 -18423.25) rotate(-180) scale(36.36 -36.36)" gradientUnits="userSpaceOnUse">
      <stop offset="0" stop-color="#e19021"/>
      <stop offset="0" stop-color="#e19021"/>
      <stop offset=".19" stop-color="#e08c20"/>
      <stop offset=".37" stop-color="#dd8020"/>
      <stop offset=".54" stop-color="#d96d1f"/>
      <stop offset=".72" stop-color="#d3511d"/>
      <stop offset=".89" stop-color="#cc2f1c"/>
      <stop offset="1" stop-color="#c7161b"/>
      <stop offset="1" stop-color="#c7161b"/>
    </linearGradient>
    <clipPath id="clippath-2">
      <path class="cls-26" d="m190.19,189.71l-1.82,14.19-1.12-7.73c-.32-2.48-.63-4.63-.94-6.46h-10.22v30.38h6.91v-20.04s2.91,20.04,2.91,20.04h4.9l2.75-20.51v20.51h6.92v-30.38h-10.28Z"/>
    </clipPath>
    <linearGradient id="Dégradé_sans_nom_4-2" data-name="Dégradé sans nom 4" x1="77.75" y1="511.36" x2="78.18" y2="511.36" gradientTransform="translate(3033.2 -18388.09) rotate(-180) scale(36.36 -36.36)" xlink:href="#Dégradé_sans_nom_4"/>
    <clipPath id="clippath-3">
      <path class="cls-26" d="m213.15,194.91c.86,0,1.45.09,1.76.27.31.18.51.47.6.85.09.39.13,1.27.13,2.65v11.8c0,2.03-.13,3.27-.39,3.73-.26.46-.96.68-2.1.68v-19.99Zm-7.9-5.2v30.38h9.96c1.89,0,3.3-.1,4.24-.31.94-.21,1.73-.57,2.36-1.09.64-.52,1.09-1.24,1.34-2.16s.38-2.74.38-5.47v-10.64c0-2.88-.09-4.81-.26-5.79-.18-.98-.61-1.87-1.31-2.67-.7-.8-1.72-1.38-3.07-1.73-1.34-.35-3.93-.53-7.74-.53h-5.91Z"/>
    </clipPath>
    <linearGradient id="Dégradé_sans_nom_4-3" data-name="Dégradé sans nom 4" x1="77.75" y1="510.39" x2="78.18" y2="510.39" gradientTransform="translate(3058.94 -18352.88) rotate(-180) scale(36.36 -36.36)" xlink:href="#Dégradé_sans_nom_4"/>
    <clipPath id="clippath-4">
      <path class="cls-26" d="m180.93,178c-.38.17-.67.4-.89.69-.21.29-.34.59-.38.91-.04.31-.06.78-.06,1.41v2.55c0,.85.07,1.49.21,1.92.14.42.42.76.86,1,.43.24.98.36,1.64.36s1.18-.14,1.61-.43c.44-.28.72-.61.85-.99.13-.38.19-1.02.19-1.92v-.34h-2.27v1.09c0,.48-.03.78-.08.91-.05.13-.16.19-.33.19s-.29-.06-.34-.19c-.05-.13-.08-.41-.08-.83v-4.05c0-.44.03-.73.08-.86.05-.13.17-.2.36-.2.17,0,.27.05.32.16.05.11.07.38.07.82v1.51h2.27v-.83c0-.81-.07-1.41-.2-1.8-.14-.39-.42-.71-.85-.96-.43-.26-.98-.39-1.65-.39-.49,0-.93.08-1.3.25"/>
    </clipPath>
    <linearGradient id="Dégradé_sans_nom_9" data-name="Dégradé sans nom 9" x1="56.96" y1="524.07" x2="57.39" y2="524.07" gradientTransform="translate(-6784.34 -577.8) rotate(90) scale(13.29 -13.29)" gradientUnits="userSpaceOnUse">
      <stop offset="0" stop-color="#27367e"/>
      <stop offset="0" stop-color="#27367e"/>
      <stop offset=".16" stop-color="#283b82"/>
      <stop offset=".35" stop-color="#2b498e"/>
      <stop offset=".56" stop-color="#3061a2"/>
      <stop offset=".77" stop-color="#3883bf"/>
      <stop offset="1" stop-color="#42aee3"/>
      <stop offset="1" stop-color="#42aee3"/>
    </linearGradient>
    <clipPath id="clippath-5">
      <polygon class="cls-26" points="186.22 177.93 186.22 186.64 188.49 186.64 188.49 182.98 189.89 182.98 189.89 181.33 188.49 181.33 188.49 179.67 190.06 179.67 190.06 177.93 186.22 177.93"/>
    </clipPath>
    <linearGradient id="Dégradé_sans_nom_9-2" data-name="Dégradé sans nom 9" x1="47.12" y1="525.59" x2="47.54" y2="525.59" gradientTransform="translate(-4844.87 -271.18) rotate(90) scale(9.58 -9.58)" xlink:href="#Dégradé_sans_nom_9"/>
    <clipPath id="clippath-6">
      <path class="cls-26" d="m193.34,181.64v-2.22c.29,0,.49.05.58.13.09.09.14.28.14.58v.72c0,.32-.04.53-.12.64-.08.1-.23.15-.43.15-.05,0-.1,0-.17,0m-2.27-3.71v8.71h2.27v-3.51h.61c.5,0,.9-.07,1.2-.2.31-.14.52-.33.63-.59.11-.25.17-.66.17-1.22v-.76c0-.55-.03-.95-.09-1.21-.06-.26-.17-.48-.34-.66-.17-.18-.42-.32-.75-.42-.33-.1-.81-.15-1.42-.15h-2.28Z"/>
    </clipPath>
    <linearGradient id="Dégradé_sans_nom_9-3" data-name="Dégradé sans nom 9" x1="53.48" y1="524.38" x2="53.91" y2="524.38" gradientTransform="translate(-6162.69 -468.78) rotate(90) scale(12.12 -12.12)" xlink:href="#Dégradé_sans_nom_9"/>
    <clipPath id="clippath-7">
      <rect class="cls-26" x="197.95" y="182.29" width="3.53" height="1.91"/>
    </clipPath>
    <linearGradient id="Dégradé_sans_nom_9-4" data-name="Dégradé sans nom 9" x1="41.72" y1="526.18" x2="42.15" y2="526.18" gradientTransform="translate(-4353.31 -179.64) rotate(90) scale(8.65 -8.65)" xlink:href="#Dégradé_sans_nom_9"/>
    <clipPath id="clippath-8">
      <rect class="cls-26" x="173.59" y="182.29" width="3.53" height="1.91"/>
    </clipPath>
    <linearGradient id="Dégradé_sans_nom_9-5" data-name="Dégradé sans nom 9" x1="45.52" y1="526.5" x2="45.95" y2="526.5" gradientTransform="translate(-4380.4 -212.5) rotate(90) scale(8.65 -8.65)" xlink:href="#Dégradé_sans_nom_9"/>
    <clipPath id="clippath-9">
      <path class="cls-26" d="m155.71,120.42c0,3.9,3.16,7.06,7.06,7.06s7.06-3.16,7.06-7.06-3.16-7.06-7.06-7.06-7.06,3.16-7.06,7.06"/>
    </clipPath>
    <linearGradient id="Dégradé_sans_nom_10" data-name="Dégradé sans nom 10" x1="70.32" y1="521.27" x2="70.74" y2="521.27" gradientTransform="translate(-1763.87 14337.99) scale(27.27 -27.27)" gradientUnits="userSpaceOnUse">
      <stop offset="0" stop-color="#283371"/>
      <stop offset=".27" stop-color="#2b4785"/>
      <stop offset=".81" stop-color="#357cba"/>
      <stop offset="1" stop-color="#3990ce"/>
      <stop offset="1" stop-color="#3990ce"/>
    </linearGradient>
    <clipPath id="clippath-10">
      <path class="cls-26" d="m193.37,130.28c0,2.56,2.07,4.63,4.63,4.63s4.63-2.07,4.63-4.63-2.08-4.63-4.63-4.63-4.63,2.07-4.63,4.63"/>
    </clipPath>
    <linearGradient id="Dégradé_sans_nom_24" data-name="Dégradé sans nom 24" x1="65.37" y1="519.19" x2="65.79" y2="519.19" gradientTransform="translate(-11128.03 -1300.38) rotate(90) scale(21.81 -21.81)" gradientUnits="userSpaceOnUse">
      <stop offset="0" stop-color="#ca1a17"/>
      <stop offset=".24" stop-color="#d12e1b"/>
      <stop offset=".72" stop-color="#e46325"/>
      <stop offset="1" stop-color="#f0852c"/>
      <stop offset="1" stop-color="#f0852c"/>
    </linearGradient>
    <clipPath id="clippath-11">
      <polygon class="cls-26" points="188.72 75.52 185 75.52 188.01 77.71 186.86 81.25 189.87 79.06 192.88 81.25 191.73 77.71 194.75 75.52 191.02 75.52 189.87 71.98 188.72 75.52"/>
    </clipPath>
    <radialGradient id="Dégradé_sans_nom_20" data-name="Dégradé sans nom 20" cx="51.87" cy="514.33" fx="51.87" fy="514.33" r=".42" gradientTransform="translate(-390.59 5832.42) scale(11.19 -11.19)" gradientUnits="userSpaceOnUse">
      <stop offset="0" stop-color="#d22e17"/>
      <stop offset="0" stop-color="#d22e17"/>
      <stop offset=".09" stop-color="#d53719"/>
      <stop offset=".49" stop-color="#e36123"/>
      <stop offset=".81" stop-color="#ec7b29"/>
      <stop offset="1" stop-color="#f0852c"/>
      <stop offset="1" stop-color="#f0852c"/>
    </radialGradient>
    <clipPath id="clippath-12">
      <rect class="cls-26" x="9.42" y="39.05" width="357.73" height="252.94"/>
    </clipPath>
    <clipPath id="clippath-13">
      <polygon class="cls-26" points="198.67 82 195.73 82 198.11 83.72 197.2 86.51 199.57 84.79 201.95 86.51 201.04 83.72 203.42 82 200.48 82 199.57 79.2 198.67 82"/>
    </clipPath>
    <radialGradient id="Dégradé_sans_nom_20-2" data-name="Dégradé sans nom 20" cx="42.84" cy="513.77" fx="42.84" fy="513.77" r=".42" gradientTransform="translate(-178.53 4617.12) scale(8.83 -8.83)" xlink:href="#Dégradé_sans_nom_20"/>
    <clipPath id="clippath-14">
      <polygon class="cls-26" points="209.69 88.33 207.27 88.33 209.23 89.75 208.48 92.06 210.44 90.63 212.4 92.06 211.65 89.75 213.61 88.33 211.19 88.33 210.44 86.03 209.69 88.33"/>
    </clipPath>
    <radialGradient id="Dégradé_sans_nom_20-3" data-name="Dégradé sans nom 20" cx="32.9" cy="513.59" fx="32.9" fy="513.59" r=".42" gradientTransform="translate(-28.88 3825.22) scale(7.27 -7.27)" xlink:href="#Dégradé_sans_nom_20"/>
    <clipPath id="clippath-15">
      <polygon class="cls-26" points="169.09 88.33 166.67 88.33 168.63 89.75 167.88 92.06 169.84 90.63 171.79 92.06 171.05 89.75 173 88.33 170.58 88.33 169.84 86.03 169.09 88.33"/>
    </clipPath>
    <radialGradient id="Dégradé_sans_nom_20-4" data-name="Dégradé sans nom 20" cx="40.45" cy="513.59" fx="40.45" fy="513.59" r=".42" gradientTransform="translate(-124.45 3825.22) scale(7.27 -7.27)" xlink:href="#Dégradé_sans_nom_20"/>
    <clipPath id="clippath-16">
      <polygon class="cls-26" points="219.2 93.96 217.05 93.96 218.79 95.22 218.12 97.26 219.86 96 221.59 97.26 220.93 95.22 222.66 93.96 220.52 93.96 219.86 91.92 219.2 93.96"/>
    </clipPath>
    <radialGradient id="Dégradé_sans_nom_20-5" data-name="Dégradé sans nom 20" cx="24.86" cy="513.93" fx="24.86" fy="513.93" r=".42" gradientTransform="translate(59.67 3406.73) scale(6.44 -6.44)" xlink:href="#Dégradé_sans_nom_20"/>
    <clipPath id="clippath-17">
      <polygon class="cls-26" points="160.57 93.96 158.42 93.96 160.16 95.22 159.49 97.26 161.23 96 162.96 97.26 162.3 95.22 164.03 93.96 161.89 93.96 161.23 91.92 160.57 93.96"/>
    </clipPath>
    <radialGradient id="Dégradé_sans_nom_20-6" data-name="Dégradé sans nom 20" cx="37.17" cy="513.93" fx="37.17" fy="513.93" r=".42" gradientTransform="translate(-78.31 3406.73) scale(6.44 -6.44)" xlink:href="#Dégradé_sans_nom_20"/>
    <clipPath id="clippath-18">
      <polygon class="cls-26" points="227.79 99.8 226.05 99.8 227.46 100.82 226.92 102.48 228.33 101.45 229.74 102.48 229.2 100.82 230.61 99.8 228.87 99.8 228.33 98.14 227.79 99.8"/>
    </clipPath>
    <radialGradient id="Dégradé_sans_nom_20-7" data-name="Dégradé sans nom 20" cx="9.95" cy="514" fx="9.95" fy="514" r=".42" gradientTransform="translate(176.25 2792.1) scale(5.24 -5.24)" xlink:href="#Dégradé_sans_nom_20"/>
    <clipPath id="clippath-19">
      <polygon class="cls-26" points="151.08 99.8 149.33 99.8 150.74 100.82 150.21 102.48 151.61 101.45 153.02 102.48 152.49 100.82 153.89 99.8 152.15 99.8 151.61 98.14 151.08 99.8"/>
    </clipPath>
    <radialGradient id="Dégradé_sans_nom_20-8" data-name="Dégradé sans nom 20" cx="29.77" cy="514" fx="29.77" fy="514" r=".42" gradientTransform="translate(-4.31 2792.1) scale(5.24 -5.24)" xlink:href="#Dégradé_sans_nom_20"/>
    <clipPath id="clippath-20">
      <polygon class="cls-26" points="179.43 81.85 176.5 81.85 178.87 83.58 177.96 86.37 180.34 84.64 182.71 86.37 181.81 83.58 184.18 81.85 181.25 81.85 180.34 79.06 179.43 81.85"/>
    </clipPath>
    <radialGradient id="Dégradé_sans_nom_20-9" data-name="Dégradé sans nom 20" cx="45.79" cy="513.74" fx="45.79" fy="513.74" r=".42" gradientTransform="translate(-223.8 4616.78) scale(8.83 -8.83)" xlink:href="#Dégradé_sans_nom_20"/>
    <clipPath id="clippath-21">
      <rect class="cls-26" x="9.42" y="39.05" width="357.73" height="252.94"/>
    </clipPath>
    <clipPath id="clippath-22">
      <path class="cls-26" d="m217.06,153.66c.33,6.49-12.68,12.42-29.05,13.24-16.37.82-29.91-3.78-30.23-10.27-.08-1.67.72-3.3,2.23-4.82-2.41,1.96-3.73,4.14-3.61,6.38.36,7.13,15.07,12.18,32.85,11.29,17.79-.89,31.92-7.39,31.56-14.52-.22-4.33-2.93-8.34-14.12-9.8,9.18,1.55,10.17,4.09,10.39,8.51"/>
    </clipPath>
    <linearGradient id="Dégradé_sans_nom_21" data-name="Dégradé sans nom 21" x1="78.19" y1="520.12" x2="78.62" y2="520.12" gradientTransform="translate(-78173.17 -11654.94) rotate(90) scale(150.66 -150.66)" gradientUnits="userSpaceOnUse">
      <stop offset="0" stop-color="#283373"/>
      <stop offset=".14" stop-color="#293877"/>
      <stop offset=".32" stop-color="#2e4683"/>
      <stop offset=".5" stop-color="#375e96"/>
      <stop offset=".7" stop-color="#4280b2"/>
      <stop offset=".9" stop-color="#51abd5"/>
      <stop offset="1" stop-color="#5ac3e9"/>
      <stop offset="1" stop-color="#5ac3e9"/>
    </linearGradient>
    <clipPath id="clippath-23">
      <path class="cls-26" d="m225.23,155.87c.38,7.66-14.97,14.66-34.3,15.63-19.33.97-35.31-4.46-35.69-12.12-.1-1.97-.49-3.9,1.29-5.69-2.85,2.31-3.06,4.88-2.93,7.53.42,8.41,17.79,14.38,38.78,13.33,21-1.05,37.68-8.73,37.26-17.14-.31-6.17-9.05-12.02-22.32-13.76,10.84,1.83,17.65,7.01,17.91,12.23"/>
    </clipPath>
    <linearGradient id="Dégradé_sans_nom_24-2" data-name="Dégradé sans nom 24" x1="78.18" y1="520.14" x2="78.61" y2="520.14" gradientTransform="translate(-77213.3 -11511.93) rotate(90) scale(148.82 -148.82)" xlink:href="#Dégradé_sans_nom_24"/>
    <clipPath id="clippath-24">
      <path class="cls-26" d="m225.23,155.87c.38,7.66-14.97,14.66-34.3,15.63-19.33.97-35.31-4.46-35.69-12.12-.1-1.97-.49-3.9,1.29-5.69-2.85,2.31-3.06,4.88-2.93,7.53.42,8.41,17.79,14.38,38.78,13.33,21-1.05,37.68-8.73,37.26-17.14-.31-6.17-9.05-12.02-22.32-13.76,10.84,1.83,17.65,7.01,17.91,12.23"/>
    </clipPath>
    <linearGradient id="Dégradé_sans_nom_23" data-name="Dégradé sans nom 23" x1="78.49" y1="520.12" x2="78.92" y2="520.12" gradientTransform="translate(-92446.42 -13858.47) rotate(90) scale(178.11 -178.11)" gradientUnits="userSpaceOnUse">
      <stop offset="0" stop-color="#c6161d"/>
      <stop offset=".15" stop-color="#c61b1e"/>
      <stop offset=".34" stop-color="#c92922"/>
      <stop offset=".54" stop-color="#cd4129"/>
      <stop offset=".75" stop-color="#d26333"/>
      <stop offset=".97" stop-color="#d98e3f"/>
      <stop offset="1" stop-color="#db9542"/>
      <stop offset="1" stop-color="#db9542"/>
    </linearGradient>
    <clipPath id="clippath-25">
      <path class="cls-26" d="m199.08,139.68c-6.51,1.54-13.9-11.02-13.9-11.02.31,1.14,6.56,24.72-2.2,29.97-.73.44-1.6.77-2.64.93l3.84,2.41,4.61-2.81c2.24-.86,9.74-4.05,14.56-12.35,5.46-9.41,3.58-18.7,3.1-20.79-1.45,13.46-7.37,13.67-7.37,13.67"/>
    </clipPath>
    <linearGradient id="Dégradé_sans_nom_24-3" data-name="Dégradé sans nom 24" x1="73.68" y1="520.02" x2="74.11" y2="520.02" gradientTransform="translate(-24947.57 -3430.92) rotate(90) scale(48.35 -48.35)" xlink:href="#Dégradé_sans_nom_24"/>
    <clipPath id="clippath-26">
      <path class="cls-26" d="m160,151.81c7.83,7.79,16.88,10.31,21.19,11.21,14.05,3.46,20.78-2.45,20.78-2.45-8.1,2.48-12.87.41-14.5-.44-9.52-4.97-13.79-21.77-6.66-40.37-12.51,15.67-21.7,13.39-21.7,13.39-9.05-1.77-11.11-18.1-11.11-18.1-.33,2.7-2.4,22.46,11.98,36.76"/>
    </clipPath>
    <linearGradient id="Dégradé_sans_nom_25" data-name="Dégradé sans nom 25" x1="77.83" y1="522.72" x2="78.25" y2="522.72" gradientTransform="translate(-5901.73 40787.85) scale(77.76 -77.76)" gradientUnits="userSpaceOnUse">
      <stop offset="0" stop-color="#283371"/>
      <stop offset=".25" stop-color="#283674"/>
      <stop offset=".44" stop-color="#2a407e"/>
      <stop offset=".63" stop-color="#2d518f"/>
      <stop offset=".8" stop-color="#3168a6"/>
      <stop offset=".96" stop-color="#3787c5"/>
      <stop offset="1" stop-color="#3990ce"/>
      <stop offset="1" stop-color="#3990ce"/>
    </linearGradient>
    <clipPath id="clippath-27">
      <polygon class="cls-26" points="161.23 102.78 175.35 111.75 165.84 103.29 189.87 90.86 214.43 102.78 205.15 111.75 218.98 102.78 189.87 84.53 161.23 102.78"/>
    </clipPath>
    <linearGradient id="Dégradé_sans_nom_26" data-name="Dégradé sans nom 26" x1="77.99" y1="519.57" x2="78.41" y2="519.57" gradientTransform="translate(-70180.91 -10492.82) rotate(90) scale(135.44 -135.44)" gradientUnits="userSpaceOnUse">
      <stop offset="0" stop-color="#273587"/>
      <stop offset=".15" stop-color="#283a8a"/>
      <stop offset=".32" stop-color="#2b4895"/>
      <stop offset=".51" stop-color="#3060a7"/>
      <stop offset=".71" stop-color="#3782c1"/>
      <stop offset=".92" stop-color="#40ade1"/>
      <stop offset="1" stop-color="#45c0f0"/>
      <stop offset="1" stop-color="#45c0f0"/>
    </linearGradient>
    <clipPath id="clippath-28">
      <path class="cls-26" d="m99.04,223.75l5.22,6.88,13.08-1.48c.86-1.24,0-9.8,0-9.8l-13.08-1.77-5.22,6.17Z"/>
    </clipPath>
    <linearGradient id="Dégradé_sans_nom_27" data-name="Dégradé sans nom 27" x1="75.64" y1="523.1" x2="76.06" y2="523.1" gradientTransform="translate(-3227.54 23230.26) scale(43.98 -43.98)" gradientUnits="userSpaceOnUse">
      <stop offset="0" stop-color="#253886"/>
      <stop offset=".15" stop-color="#253d89"/>
      <stop offset=".33" stop-color="#254d95"/>
      <stop offset=".54" stop-color="#2667a7"/>
      <stop offset=".77" stop-color="#268cc1"/>
      <stop offset="1" stop-color="#28b9e1"/>
    </linearGradient>
    <clipPath id="clippath-29">
      <path class="cls-26" d="m259.22,220.47s-.85,6.25,0,8.54l.69,1.27,13.06-1.9,4.43-7.52-11.16-3.16-7.02,2.77Z"/>
    </clipPath>
    <linearGradient id="Dégradé_sans_nom_28" data-name="Dégradé sans nom 28" x1="70.65" y1="523.11" x2="71.08" y2="523.11" gradientTransform="translate(-2826.24 23066) scale(43.67 -43.67)" gradientUnits="userSpaceOnUse">
      <stop offset="0" stop-color="#28b9e1"/>
      <stop offset=".13" stop-color="#2797c9"/>
      <stop offset=".3" stop-color="#2675b1"/>
      <stop offset=".47" stop-color="#255a9e"/>
      <stop offset=".64" stop-color="#254790"/>
      <stop offset=".82" stop-color="#253b88"/>
      <stop offset="1" stop-color="#253886"/>
    </linearGradient>
    <clipPath id="clippath-30">
      <path class="cls-26" d="m96.59,232.26l-8.69,17.57,14.07,3.32v-29.75s-.4-5.3,8.07-2.61c0,0,9.57,2.14,6.81-3.09,0,0,.47-2.06-9.18-2.22l-19.77-4.11,8.69,20.89Z"/>
    </clipPath>
    <linearGradient id="Dégradé_sans_nom_29" data-name="Dégradé sans nom 29" x1="77.45" y1="522.12" x2="77.87" y2="522.12" gradientTransform="translate(-5280.59 36423.75) scale(69.32 -69.32)" gradientUnits="userSpaceOnUse">
      <stop offset="0" stop-color="#28b9e1"/>
      <stop offset=".02" stop-color="#27aed9"/>
      <stop offset=".08" stop-color="#278ec3"/>
      <stop offset=".14" stop-color="#2673af"/>
      <stop offset=".22" stop-color="#255da0"/>
      <stop offset=".31" stop-color="#254c94"/>
      <stop offset=".42" stop-color="#25408c"/>
      <stop offset=".57" stop-color="#253987"/>
      <stop offset="1" stop-color="#253886"/>
    </linearGradient>
    <clipPath id="clippath-31">
      <path class="cls-26" d="m268.22,228.06c-3.4.63-30.23,4.03-30.23,4.03-.63.4-26.67,2.06-26.67,2.06l-18.91.47-30.38-.79c-7.36.24-31.49-2.61-31.49-2.61-14.32-1.98-22.63-3.96-22.63-3.96-1.03-.16-5.93-1.27-5.93-1.27v25.08c-.03,3.81-.05,7.62-.08,11.43,25.1,4.05,55.02,7.06,88.76,6.89,31.5-.16,59.58-3.05,83.42-6.89l.55-23.38v-14.8c0-1.5-.95-2.29-.95-2.29-.87,5.3-5.46,6.01-5.46,6.01"/>
    </clipPath>
    <radialGradient id="Dégradé_sans_nom_30" data-name="Dégradé sans nom 30" cx="77.9" cy="521.11" fx="77.9" fy="521.11" r=".42" gradientTransform="translate(-11421.52 77906.75) scale(149.03 -149.03)" gradientUnits="userSpaceOnUse">
      <stop offset="0" stop-color="#28b9e1"/>
      <stop offset=".34" stop-color="#27b6df"/>
      <stop offset=".5" stop-color="#27afda"/>
      <stop offset=".63" stop-color="#27a2d0"/>
      <stop offset=".74" stop-color="#278fc3"/>
      <stop offset=".83" stop-color="#2677b2"/>
      <stop offset=".92" stop-color="#255a9e"/>
      <stop offset="1" stop-color="#253886"/>
    </radialGradient>
    <clipPath id="clippath-32">
      <path class="cls-26" d="m269.16,216.11s-12.66.24-9.42,5.38c0,0,1.58,1.5,6.88-.08,0,0,4.98-1.82,6.57-.24l.97,1.49.45,1.67-.35,29.35,14.44-2.53-9.11-17.57,9.11-21.52-19.55,4.04Z"/>
    </clipPath>
    <linearGradient id="Dégradé_sans_nom_31" data-name="Dégradé sans nom 31" x1="74.11" y1="522.13" x2="74.54" y2="522.13" gradientTransform="translate(-4886.58 36484.9) scale(69.43 -69.43)" gradientUnits="userSpaceOnUse">
      <stop offset="0" stop-color="#253886"/>
      <stop offset=".38" stop-color="#253a87"/>
      <stop offset=".54" stop-color="#25418c"/>
      <stop offset=".66" stop-color="#254d95"/>
      <stop offset=".76" stop-color="#255fa1"/>
      <stop offset=".84" stop-color="#2676b1"/>
      <stop offset=".92" stop-color="#2792c5"/>
      <stop offset=".99" stop-color="#27b3dc"/>
      <stop offset="1" stop-color="#28b9e1"/>
    </linearGradient>
    <clipPath id="clippath-33">
      <rect class="cls-26" x="9.42" y="39.05" width="357.73" height="252.94"/>
    </clipPath>
  </defs>
  <g>
    <g class="cls-30">
      <rect class="cls-38" x="106.22" y="61.34" width="164.07" height="186.77"/>
    </g>
    <g class="cls-31">
      <rect class="cls-58" x="146.34" y="195.34" width="31.92" height="19.12" transform="translate(-44.9 364.26) rotate(-89.18)"/>
    </g>
    <g class="cls-2">
      <rect class="cls-65" x="172.91" y="192.5" width="30.73" height="24.81" transform="translate(-19.3 390.23) rotate(-89.18)"/>
    </g>
    <g class="cls-21">
      <rect class="cls-47" x="199.08" y="195.54" width="30.64" height="18.73" transform="translate(6.45 416.36) rotate(-89.18)"/>
    </g>
    <g class="cls-1">
      <rect class="cls-64" x="177.53" y="179.24" width="9.49" height="6.08" transform="translate(-14.43 348.9) rotate(-85.27)"/>
    </g>
    <g class="cls-15">
      <rect class="cls-43" x="183.64" y="180.02" width="9" height="4.54" transform="translate(-9.04 354.75) rotate(-85.27)"/>
    </g>
    <g class="cls-3">
      <rect class="cls-41" x="188.97" y="179.5" width="9.09" height="5.58" transform="translate(-4.11 360.1) rotate(-85.27)"/>
    </g>
    <g class="cls-10">
      <rect class="cls-46" x="198.62" y="181.41" width="2.2" height="3.68" transform="translate(.63 367.17) rotate(-85.27)"/>
    </g>
    <g class="cls-32">
      <rect class="cls-48" x="174.25" y="181.41" width="2.2" height="3.68" transform="translate(-21.73 342.89) rotate(-85.27)"/>
    </g>
    <g class="cls-4">
      <rect class="cls-69" x="154.79" y="112.44" width="15.96" height="15.96" transform="translate(-15.22 23.91) rotate(-8.03)"/>
    </g>
    <g class="cls-13">
      <rect class="cls-55" x="193" y="125.28" width="10" height="10" transform="translate(51.84 316.86) rotate(-85.27)"/>
    </g>
    <g class="cls-22">
      <rect class="cls-36" x="185" y="71.98" width="9.75" height="9.27"/>
    </g>
    <g class="cls-5">
      <polygon class="cls-60" points="189.87 107.87 191.35 112.42 196.13 112.42 192.26 115.23 193.74 119.78 189.87 116.97 186 119.78 187.48 115.23 183.61 112.42 188.39 112.42 189.87 107.87"/>
    </g>
    <g class="cls-7">
      <rect class="cls-63" x="195.73" y="79.2" width="7.69" height="7.31"/>
    </g>
    <g class="cls-34">
      <rect class="cls-59" x="207.27" y="86.03" width="6.34" height="6.02"/>
    </g>
    <g class="cls-20">
      <rect class="cls-61" x="166.67" y="86.03" width="6.34" height="6.02"/>
    </g>
    <g class="cls-19">
      <rect class="cls-57" x="217.05" y="91.92" width="5.61" height="5.34"/>
    </g>
    <g class="cls-29">
      <rect class="cls-50" x="158.42" y="91.92" width="5.61" height="5.34"/>
    </g>
    <g class="cls-11">
      <rect class="cls-44" x="226.05" y="98.14" width="4.56" height="4.34"/>
    </g>
    <g class="cls-25">
      <rect class="cls-71" x="149.33" y="98.14" width="4.56" height="4.34"/>
    </g>
    <g class="cls-27">
      <rect class="cls-45" x="176.5" y="79.06" width="7.69" height="7.31"/>
    </g>
    <g class="cls-8">
      <path class="cls-52" d="m189.87,106.35c6.41,0,11.69,3.6,12.44,8.24.06-.38.09-.76.09-1.15,0-5.19-5.61-9.39-12.54-9.39s-12.54,4.2-12.54,9.39c0,.39.03.77.09,1.15.76-4.64,6.04-8.24,12.45-8.24"/>
      <path class="cls-52" d="m189.87,101.83c6.41,0,11.69,3.6,12.44,8.24.06-.38.09-.76.09-1.15,0-5.19-5.61-9.39-12.54-9.39s-12.54,4.2-12.54,9.39c0,.39.03.77.09,1.15.76-4.64,6.04-8.24,12.45-8.24"/>
    </g>
    <g class="cls-14">
      <rect class="cls-54" x="173.48" y="124.39" width="30.48" height="66.74" transform="translate(15.93 332.82) rotate(-85.27)"/>
    </g>
    <g class="cls-28">
      <rect class="cls-40" x="172.69" y="120.13" width="38.16" height="78.97" transform="translate(16.88 337.57) rotate(-85.27)"/>
    </g>
    <g class="cls-16">
      <rect class="cls-68" x="172.69" y="120.13" width="38.16" height="78.97" transform="translate(16.88 337.57) rotate(-85.27)"/>
    </g>
    <g class="cls-33">
      <rect class="cls-51" x="175.49" y="128.32" width="38.18" height="31.34" transform="translate(35.03 326.02) rotate(-85.27)"/>
    </g>
    <g class="cls-17">
      <rect class="cls-53" x="135.65" y="102.77" width="76.3" height="75.98" transform="translate(-49.45 154.13) rotate(-42.43)"/>
    </g>
    <g class="cls-12">
      <rect class="cls-49" x="174.16" y="68.24" width="31.89" height="59.8" transform="translate(76.62 279.5) rotate(-85.27)"/>
    </g>
    <g class="cls-9">
      <rect class="cls-56" x="99.04" y="217.58" width="19.17" height="13.06"/>
    </g>
    <g class="cls-23">
      <rect class="cls-67" x="258.37" y="217.7" width="19.02" height="12.58"/>
    </g>
    <g class="cls-35">
      <rect class="cls-39" x="87.9" y="211.37" width="31.72" height="41.78"/>
    </g>
    <g class="cls-18">
      <rect class="cls-70" x="101.89" y="222.05" width="172.73" height="47.52"/>
    </g>
    <g class="cls-6">
      <rect class="cls-42" x="256.5" y="212.08" width="32.21" height="41.62"/>
    </g>
    <g class="cls-24">
      <polyline class="cls-62" points="208.73 100.31 207.75 117.52 210.9 117.52"/>
      <path class="cls-37" d="m110.49,244.08c-.78-.07-1.57-.14-2.35-.21v-1.56c0-.45-.03-.74-.08-.86-.05-.12-.16-.18-.33-.2-.19-.02-.32.04-.37.17-.05.13-.08.43-.08.88v4.17c0,.44.03.72.08.86.05.14.17.22.35.23.18.02.29-.04.34-.17.05-.13.08-.44.08-.93v-1.13c.78.07,1.57.14,2.35.21v.35c0,.93-.07,1.58-.2,1.96-.13.38-.42.69-.88.94-.45.25-1.01.35-1.67.29-.69-.06-1.26-.24-1.71-.53-.45-.29-.74-.66-.89-1.11-.15-.45-.22-1.12-.22-2v-2.62c0-.65.02-1.13.07-1.45.05-.32.18-.62.4-.9.22-.28.53-.49.92-.62.39-.14.85-.18,1.36-.13.69.06,1.27.25,1.72.55.45.31.75.66.89,1.07.14.41.21,1.03.21,1.87v.85Z"/>
      <path class="cls-37" d="m111.4,240.25c1.33.12,2.66.23,3.99.34v1.8c-.54-.04-1.09-.09-1.63-.14v1.7c.48.04.97.08,1.45.12v1.71c-.48-.04-.97-.08-1.45-.12v3.78c-.79-.07-1.57-.13-2.35-.2v-8.99Z"/>
      <path class="cls-37" d="m116.03,240.64c.79.06,1.58.13,2.37.19.64.05,1.13.14,1.48.26.34.13.6.29.78.49.17.2.29.44.35.71s.09.69.09,1.25v.78c0,.57-.06.99-.18,1.24-.12.25-.34.44-.66.55-.32.12-.74.15-1.25.11l-.63-.05v3.62c-.79-.06-1.57-.13-2.36-.19v-8.99Zm2.36,1.73v2.29c.07,0,.12.02.17.02.22.02.37-.02.45-.12.08-.1.13-.32.13-.65v-.74c0-.31-.05-.51-.15-.61-.1-.1-.3-.16-.6-.19"/>
      <path class="cls-37" d="m124.55,245.83v1.55c-.99-.07-1.98-.14-2.97-.22v-1.55c.99.08,1.98.15,2.97.22"/>
      <path class="cls-37" d="m132.89,245.77c-.79-.05-1.57-.1-2.36-.15v-1.57c0-.45-.03-.74-.08-.86-.05-.12-.16-.18-.33-.19-.19-.01-.32.05-.37.18-.05.13-.08.43-.08.88v4.18c0,.44.03.72.08.86.05.14.17.21.35.22.18.01.29-.05.34-.18.05-.13.08-.44.08-.94v-1.13c.79.05,1.57.1,2.36.15v.35c0,.93-.07,1.59-.2,1.97-.13.38-.43.7-.88.97-.45.26-1.01.37-1.68.33-.69-.05-1.26-.21-1.71-.49-.45-.28-.74-.64-.89-1.09-.15-.45-.22-1.11-.22-2v-2.63c0-.65.02-1.13.07-1.46.04-.32.18-.62.4-.91.22-.29.53-.5.92-.65.39-.15.85-.2,1.36-.17.69.05,1.27.22,1.72.51.45.29.75.65.89,1.05.14.41.21,1.03.21,1.87v.86Z"/>
      <path class="cls-37" d="m138.85,246.42v1.81c0,.66-.03,1.15-.1,1.46-.07.31-.21.59-.43.84-.22.26-.5.44-.85.55-.35.11-.74.15-1.19.12-.5-.03-.92-.11-1.27-.24-.35-.13-.62-.31-.81-.55-.19-.23-.33-.51-.41-.83-.08-.32-.12-.79-.12-1.42v-1.89c0-.69.07-1.22.22-1.6.15-.38.42-.67.81-.88.39-.21.88-.3,1.49-.26.51.03.94.13,1.31.3.36.17.65.38.84.64.2.25.33.51.41.77.07.26.11.65.11,1.17m-2.26-.69c0-.38-.02-.62-.06-.72-.04-.1-.13-.16-.26-.16-.13,0-.22.04-.27.13-.04.1-.07.33-.07.71v3.33c0,.35.02.58.07.69.04.11.13.17.26.17.13,0,.22-.03.27-.13.04-.09.06-.3.06-.62v-3.41Z"/>
      <path class="cls-37" d="m141.9,243.99l-.04.7c.18-.27.38-.47.63-.59.24-.13.52-.18.83-.17.61.03,1.08.33,1.43.91.19-.27.41-.47.64-.6.24-.13.5-.19.8-.17.38.02.7.13.96.32.25.2.41.43.48.71.07.27.11.71.11,1.32v5.26c-.73-.03-1.46-.07-2.2-.1v-4.82c0-.63-.02-1.02-.06-1.18-.04-.15-.14-.23-.3-.24-.16,0-.26.06-.31.21-.05.15-.07.54-.07,1.17v4.82c-.73-.04-1.46-.07-2.2-.11v-4.7c0-.72-.02-1.16-.05-1.31-.04-.15-.13-.22-.29-.23-.1,0-.19.03-.26.1-.07.07-.11.16-.12.27,0,.11-.01.34-.01.7v5.13c-.73-.04-1.46-.08-2.2-.12v-7.39c.74.04,1.49.08,2.24.12"/>
      <path class="cls-37" d="m150.82,244.41l-.04.7c.18-.27.38-.47.63-.6.24-.13.52-.19.83-.18.61.02,1.08.32,1.43.89.19-.27.41-.47.64-.6.24-.13.5-.19.8-.18.38.01.7.12.96.31.25.2.41.43.48.7.07.27.11.71.11,1.32v5.26c-.73-.03-1.46-.05-2.2-.08v-4.83c0-.63-.02-1.02-.06-1.18-.04-.15-.14-.23-.3-.24-.16,0-.26.06-.31.21-.05.15-.07.54-.07,1.17v4.83c-.73-.03-1.46-.06-2.2-.09v-4.7c0-.73-.02-1.16-.05-1.31-.04-.15-.13-.22-.29-.23-.1,0-.19.03-.26.1-.07.07-.11.16-.12.27,0,.11-.01.34-.01.7v5.13c-.73-.03-1.46-.06-2.2-.1v-7.4c.75.03,1.49.07,2.24.1"/>
      <path class="cls-37" d="m162.63,248.66c-.98-.03-1.95-.06-2.93-.09v1.6c0,.33.02.55.07.65.05.1.14.15.28.15.17,0,.29-.06.34-.18.06-.13.09-.37.09-.74v-.98c.72.02,1.43.04,2.15.07v.55c0,.46-.03.81-.09,1.05-.06.24-.19.5-.41.78-.21.27-.48.47-.81.6-.33.13-.74.19-1.23.17-.48-.02-.9-.1-1.27-.25-.37-.15-.65-.35-.85-.6-.2-.25-.35-.52-.42-.81-.08-.29-.12-.71-.12-1.26v-2.16c0-.65.09-1.15.26-1.52.18-.37.46-.65.86-.83.4-.19.86-.27,1.38-.25.63.02,1.16.16,1.57.41.41.25.7.58.87.98.17.4.25.96.25,1.68v.98Zm-2.27-1.28v-.54c0-.38-.02-.63-.06-.74-.04-.11-.12-.17-.25-.18-.16,0-.25.04-.29.13-.04.09-.06.35-.06.77v.54c.22,0,.44.01.66.02"/>
      <path class="cls-37" d="m165.7,244.91c-.03.32-.06.65-.09.97.33-.69.81-1.05,1.43-1.07v2.61c-.41,0-.72.04-.91.15-.19.11-.31.26-.36.46-.04.2-.07.66-.07,1.38v2.93c-.76-.02-1.51-.04-2.27-.06v-7.41c.76.02,1.51.04,2.27.06"/>
      <path class="cls-37" d="m172.62,247.86c-.71-.01-1.42-.03-2.14-.04v-.85c0-.3-.02-.5-.07-.61-.05-.11-.14-.16-.27-.16-.13,0-.22.04-.26.13-.04.09-.07.3-.07.62v3.5c0,.27.03.46.1.6.07.13.17.2.3.2.15,0,.26-.06.31-.2.05-.14.08-.4.08-.78v-.88c.67.01,1.35.03,2.02.04,0,.59-.03,1.04-.06,1.33-.04.3-.16.6-.38.9-.21.31-.49.54-.83.69-.34.15-.76.22-1.26.21-.64-.01-1.15-.13-1.52-.36-.37-.23-.64-.54-.79-.93-.15-.4-.23-.96-.23-1.68v-2.11c0-.63.06-1.1.19-1.42.13-.32.4-.6.81-.84.42-.24.92-.36,1.51-.34.59.01,1.09.15,1.51.4.42.26.7.58.84.96.14.38.21.92.21,1.62"/>
      <path class="cls-37" d="m178.5,248.98c-.98-.01-1.96-.02-2.93-.04v1.61c0,.34.02.55.07.65.05.1.14.15.28.15.17,0,.29-.06.35-.19.06-.13.09-.38.09-.75v-.98c.72.01,1.43.02,2.15.03v.55c0,.46-.03.81-.09,1.06-.06.25-.19.51-.41.78-.21.28-.48.48-.81.62-.33.14-.74.2-1.23.19-.48,0-.9-.08-1.27-.23-.37-.14-.65-.34-.85-.58-.2-.24-.35-.51-.42-.8-.08-.29-.12-.71-.12-1.26v-2.16c0-.65.09-1.16.26-1.53.18-.37.46-.65.86-.85.4-.19.86-.29,1.38-.28.64,0,1.16.14,1.57.38.41.25.7.57.87.97.17.4.25.96.25,1.68v.98Zm-2.27-1.24v-.54c0-.38-.02-.63-.06-.74-.04-.11-.12-.17-.25-.17-.16,0-.25.04-.29.14-.04.09-.06.35-.06.77v.54c.22,0,.44,0,.66,0"/>
      <path class="cls-37" d="m186.53,249.04c-.98,0-1.95,0-2.93-.01v1.61c0,.34.02.55.07.65.05.1.14.15.28.15.17,0,.29-.06.35-.19.06-.13.09-.38.09-.75v-.98c.72,0,1.43,0,2.15,0v.55c0,.46-.03.81-.09,1.06-.06.25-.19.51-.41.79-.21.28-.48.49-.81.63-.33.14-.74.21-1.23.2-.48,0-.9-.07-1.27-.22-.37-.14-.65-.33-.85-.57-.2-.24-.35-.51-.42-.8-.08-.29-.12-.71-.12-1.26v-2.17c0-.65.09-1.16.26-1.53.18-.37.46-.66.86-.86.4-.2.86-.29,1.38-.29.64,0,1.16.13,1.57.37.41.24.7.56.87.96.17.4.25.96.25,1.68v.99Zm-2.27-1.22v-.54c0-.38-.02-.63-.06-.74-.04-.11-.12-.17-.25-.17-.16,0-.25.05-.29.14-.04.1-.06.35-.06.77v.54c.22,0,.44,0,.66,0"/>
      <path class="cls-37" d="m189.73,244.2v1.17h.61s0,1.17,0,1.17c-.2,0-.41,0-.61,0v3.98c0,.49.03.76.08.82.05.06.26.08.63.08v1.2c-.3,0-.61,0-.91,0-.52,0-.88-.02-1.11-.06-.22-.04-.42-.14-.58-.3-.17-.16-.27-.33-.31-.53-.04-.2-.06-.67-.06-1.41v-3.78c-.16,0-.33,0-.49,0v-1.18c.16,0,.33,0,.49,0v-1.17c.76,0,1.51,0,2.27,0"/>
      <path class="cls-37" d="m198.15,243.5v9.08c-.76,0-1.51.01-2.27.02v-.54c-.22.23-.45.4-.68.51-.24.11-.49.17-.75.17-.35,0-.66-.09-.91-.27-.26-.18-.42-.4-.5-.64-.07-.24-.11-.64-.11-1.19v-3.48c0-.57.04-.98.11-1.22.07-.24.24-.45.5-.63.26-.18.57-.27.94-.28.28,0,.54.05.77.15s.45.25.64.45v-2.11c.76,0,1.51-.01,2.27-.02m-2.27,3.53c0-.27-.02-.46-.07-.55-.05-.09-.14-.14-.28-.14-.14,0-.23.04-.27.13-.05.08-.07.27-.07.56v3.64c0,.3.02.5.07.6.05.1.13.14.26.14.15,0,.24-.06.29-.16.05-.11.07-.37.07-.78v-3.44Z"/>
      <path class="cls-37" d="m204.22,245.05v7.45c-.77.01-1.54.03-2.31.04.01-.21.03-.41.04-.62-.16.25-.35.44-.58.57-.23.13-.49.2-.79.2-.34,0-.62-.05-.85-.17-.22-.12-.39-.27-.5-.47-.11-.2-.17-.4-.2-.62-.03-.22-.04-.64-.04-1.28v-5.02c.76,0,1.51-.02,2.27-.03v5.07c0,.58.02.92.05,1.03.04.11.13.16.29.16.17,0,.27-.06.3-.17.03-.11.05-.47.05-1.08v-5.01c.76-.01,1.51-.02,2.27-.04"/>
      <path class="cls-37" d="m214.55,243.16v9.1c-.69.02-1.38.04-2.06.06,0-2.05,0-4.09,0-6.14-.27,2.05-.55,4.11-.82,6.16-.49.01-.98.02-1.46.04-.29-1.99-.58-3.99-.87-5.98,0,2,0,4,0,6-.69.02-1.38.03-2.06.04v-9.09c1.02-.02,2.04-.05,3.05-.07.09.54.18,1.19.28,1.93.11.77.22,1.54.34,2.3.18-1.42.36-2.84.54-4.26,1.02-.03,2.05-.06,3.07-.09"/>
      <path class="cls-37" d="m220.62,247.22v1.83c0,.67-.03,1.16-.1,1.48-.07.31-.21.61-.43.89-.22.28-.5.49-.85.63-.35.14-.74.22-1.19.23-.5.02-.92-.03-1.27-.12-.35-.1-.62-.26-.81-.48-.19-.22-.33-.48-.41-.8-.08-.31-.12-.79-.12-1.42v-1.91c0-.69.07-1.24.22-1.63.15-.39.42-.72.81-.96.39-.25.89-.38,1.49-.4.51-.02.94.04,1.31.18.36.14.65.33.84.56.2.24.33.48.41.74.07.26.11.65.11,1.18m-2.26-.48c0-.38-.02-.62-.06-.72-.04-.1-.13-.14-.26-.14-.13,0-.22.06-.27.16-.05.1-.07.34-.07.72v3.37c0,.35.02.58.07.69.04.11.13.16.26.15.13,0,.22-.06.27-.16.04-.1.06-.31.06-.63v-3.44Z"/>
      <path class="cls-37" d="m223.74,244.48c-.01.23-.03.46-.04.69.16-.28.37-.49.6-.64.24-.15.51-.23.82-.24.39-.02.71.06.95.24.25.17.41.4.48.67.07.28.11.74.11,1.39v5.23c-.75.03-1.51.06-2.26.09v-5.17c0-.51-.02-.83-.05-.94-.03-.11-.13-.16-.28-.16-.16,0-.26.07-.3.21-.04.13-.06.48-.06,1.04,0,1.68,0,3.36,0,5.05-.75.03-1.51.06-2.26.09v-7.46c.77-.03,1.54-.06,2.3-.09"/>
      <path class="cls-37" d="m232.66,242.43v9.12c-.75.04-1.51.07-2.26.11v-.54c-.22.24-.44.42-.68.54-.24.12-.49.19-.75.2-.35.02-.66-.06-.91-.24-.26-.17-.42-.38-.5-.62-.07-.24-.11-.64-.11-1.19v-3.5c0-.57.04-.98.11-1.23.07-.24.24-.46.5-.66.26-.19.57-.3.94-.32.28-.01.54.03.77.12.23.09.45.23.64.43v-2.12c.75-.04,1.51-.07,2.26-.11m-2.26,3.64c0-.27-.02-.46-.07-.55-.05-.09-.14-.13-.28-.13-.13,0-.23.05-.27.14-.05.09-.07.28-.07.57v3.66c0,.3.02.5.07.6.05.09.13.14.26.13.15,0,.24-.07.29-.17.05-.11.07-.37.07-.79v-3.46Z"/>
      <path class="cls-37" d="m238.66,247.63c-.98.06-1.95.11-2.93.16v1.62c0,.34.02.56.07.65.05.1.14.14.28.13.17,0,.29-.08.35-.21.06-.13.09-.39.09-.76v-.99c.72-.04,1.43-.08,2.15-.12v.55c0,.46-.03.82-.09,1.07-.06.25-.19.52-.41.82-.21.29-.48.52-.81.68-.33.16-.74.25-1.23.28-.48.03-.9-.02-1.27-.14-.37-.12-.65-.3-.85-.53-.2-.23-.35-.49-.42-.78-.08-.29-.12-.71-.12-1.26v-2.18c0-.65.09-1.17.26-1.56.18-.39.46-.69.86-.91.4-.22.86-.35,1.38-.37.63-.03,1.16.06,1.57.28.41.22.7.52.87.92.17.39.25.95.25,1.67v.99Zm-2.27-1.09v-.55c0-.39-.02-.64-.06-.75-.04-.11-.12-.16-.25-.16-.16,0-.25.06-.29.16-.04.1-.06.36-.06.78v.55c.22-.01.44-.02.66-.04"/>
      <path class="cls-37" d="m241.63,241.94c.59-.04,1.18-.07,1.76-.11,1.14-.07,1.91-.07,2.31.01.4.08.71.23.92.46.21.23.34.49.39.78.05.29.08.87.08,1.74v3.2c0,.82-.04,1.37-.11,1.65-.08.28-.21.51-.4.67-.19.17-.43.29-.71.37-.28.08-.7.14-1.27.17-.99.06-1.98.12-2.97.18v-9.13Zm2.36,1.42v6.01c.34-.02.55-.1.63-.24.08-.14.12-.52.12-1.13v-3.55c0-.41-.01-.68-.04-.79-.03-.11-.09-.2-.18-.25-.09-.05-.27-.06-.53-.05"/>
      <path class="cls-37" d="m250.3,241.37v1.19c-.78.05-1.55.11-2.33.16v-1.19c.78-.05,1.55-.11,2.33-.16m0,1.65v7.49c-.78.05-1.55.11-2.33.16v-7.49c.78-.05,1.55-.11,2.33-.16"/>
      <path class="cls-37" d="m256.32,242.58v5.77c0,.78-.02,1.28-.05,1.51-.04.23-.16.48-.38.75-.22.27-.52.49-.9.65-.39.16-.87.27-1.46.31-.72.05-1.3-.03-1.73-.25-.44-.22-.66-.68-.68-1.41.73-.05,1.46-.1,2.19-.16,0,.33.12.49.36.47.17-.01.29-.07.34-.18.06-.11.08-.32.08-.64v-.57c-.19.19-.4.34-.61.45-.21.11-.44.17-.67.18-.41.03-.74-.03-1-.18s-.44-.35-.54-.61c-.1-.26-.15-.64-.15-1.14v-2.72c0-.71.13-1.23.38-1.56.25-.33.64-.51,1.16-.55.28-.02.54.02.78.12.23.1.44.26.62.48l.16-.58c.7-.05,1.4-.11,2.1-.16m-2.27,2.16c0-.34-.02-.56-.06-.65-.04-.09-.13-.13-.26-.12-.13,0-.22.07-.28.18-.05.11-.08.33-.08.64v2.52c0,.34.02.55.06.65.04.1.13.14.26.13.15-.01.25-.08.29-.2.04-.12.07-.4.07-.82v-2.32Z"/>
      <path class="cls-37" d="m259.52,240.67v1.19c-.78.06-1.55.12-2.33.18v-1.19c.78-.06,1.55-.12,2.33-.19m0,1.65v7.5c-.78.06-1.55.12-2.33.18v-7.49c.78-.06,1.55-.12,2.33-.18"/>
      <path class="cls-37" d="m262.78,241.05v1.18c.2-.02.41-.03.61-.05v1.19c-.2.02-.41.03-.61.05v4.01c0,.49.03.77.08.82.05.05.26.06.63.03v1.21c-.3.03-.61.05-.91.08-.51.04-.88.05-1.1.03-.22-.03-.41-.11-.58-.25-.17-.14-.27-.31-.31-.51-.04-.2-.06-.67-.06-1.42v-3.81c-.16.01-.32.03-.49.04v-1.19l.49-.04v-1.18c.76-.06,1.51-.12,2.27-.19"/>
      <path class="cls-37" d="m265.98,244.68c-.71.06-1.41.12-2.12.18v-.5c0-.58.07-1.03.2-1.36.13-.33.4-.63.8-.9.4-.28.92-.44,1.55-.5.76-.07,1.34.02,1.73.25.39.24.62.55.7.94.08.39.12,1.21.12,2.45v3.77c-.73.07-1.46.13-2.2.2v-.67c-.14.28-.32.5-.53.65-.22.15-.48.24-.78.27-.4.03-.76-.05-1.09-.24-.33-.2-.5-.67-.5-1.43v-.62c0-.56.09-.95.26-1.17.17-.22.61-.49,1.3-.82.74-.36,1.14-.59,1.19-.7.05-.11.08-.32.08-.63,0-.39-.03-.65-.09-.76-.06-.11-.15-.16-.29-.15-.15.01-.25.07-.29.18-.04.1-.06.36-.06.78v.79Zm.72.97c-.36.3-.57.54-.63.73-.06.19-.09.45-.09.79,0,.39.03.64.08.75.05.11.15.16.3.14.14-.01.23-.07.28-.16.04-.09.06-.33.06-.7v-1.54Z"/>
      <path class="cls-37" d="m272.12,239.56v9.16c-.78.07-1.55.14-2.33.22v-9.16c.78-.07,1.55-.14,2.33-.22"/>
      <path class="cls-37" d="m133.25,256.25c-.51-.05-1.03-.09-1.54-.14v-.47c0-.22-.02-.36-.06-.42-.04-.06-.1-.1-.2-.11-.1,0-.18.02-.23.1-.05.08-.08.2-.08.36,0,.21.03.37.09.48.05.11.21.25.47.43.74.5,1.2.9,1.39,1.19.19.3.29.75.29,1.37,0,.45-.05.78-.16.98s-.31.36-.62.48c-.3.12-.66.16-1.06.12-.44-.04-.82-.16-1.13-.36-.31-.2-.52-.43-.62-.69-.1-.27-.15-.64-.15-1.11v-.41c.51.05,1.03.1,1.54.14v.77c0,.24.02.39.06.46.04.07.12.11.23.12.11.01.19-.03.25-.11.05-.08.08-.21.08-.38,0-.37-.05-.62-.15-.74-.1-.12-.36-.34-.77-.65-.41-.31-.68-.53-.82-.67-.13-.13-.24-.31-.33-.54-.09-.22-.13-.5-.13-.84,0-.48.06-.83.19-1.04s.33-.37.6-.47c.28-.1.61-.13,1.01-.1.43.04.8.14,1.1.31.3.16.5.36.6.57.1.22.15.58.15,1.08v.25Z"/>
      <path class="cls-37" d="m137.46,257.8c-.5-.04-1-.08-1.5-.13v-.6c0-.21-.02-.35-.05-.43-.03-.08-.1-.12-.19-.13-.09,0-.15.02-.19.08-.03.06-.05.21-.05.43v2.44c0,.19.02.33.07.42.05.1.12.15.21.16.11,0,.18-.03.22-.13.04-.09.06-.27.06-.54v-.62c.47.04.94.08,1.42.12,0,.41-.02.72-.05.93-.03.2-.12.41-.26.61-.15.2-.34.35-.58.44-.24.09-.53.12-.89.09-.45-.04-.8-.15-1.07-.32-.26-.18-.45-.4-.56-.69-.11-.28-.16-.68-.16-1.18v-1.47c0-.44.04-.77.13-.98.09-.22.28-.4.57-.55.29-.15.65-.21,1.06-.17.41.04.77.15,1.06.35.29.2.49.44.59.71.1.27.15.65.15,1.14"/>
      <path class="cls-37" d="m139.6,254.87v1.42c.14-.12.28-.2.44-.25.16-.05.33-.07.51-.05.28.02.51.11.71.27.2.16.31.33.36.51.04.19.07.52.07,1.01v3.58c-.53-.04-1.06-.08-1.59-.12v-3.65c0-.3-.01-.5-.05-.59-.03-.09-.1-.14-.2-.15-.1,0-.16.03-.2.12-.03.09-.05.26-.05.52v3.7c-.53-.04-1.06-.09-1.59-.13v-6.33c.53.04,1.06.08,1.59.13"/>
      <path class="cls-37" d="m145.91,258.3v1.27c0,.47-.02.81-.07,1.02-.05.21-.15.41-.3.59-.16.18-.35.3-.6.38-.24.07-.52.1-.84.07-.35-.03-.65-.09-.89-.18-.24-.09-.43-.23-.57-.39-.14-.16-.23-.36-.29-.58-.06-.22-.09-.56-.09-1v-1.33c0-.48.05-.86.16-1.12.1-.26.29-.47.57-.61.27-.14.62-.2,1.05-.17.36.03.66.1.92.22.26.12.45.27.59.45.14.18.23.36.29.54.05.18.08.46.08.83m-1.59-.5c0-.27-.01-.43-.04-.51-.03-.07-.09-.11-.19-.12-.09,0-.16.02-.19.09-.03.07-.05.23-.05.5v2.34c0,.24.02.41.05.48.03.08.09.12.18.13.09,0,.16-.02.19-.09.03-.07.05-.21.05-.43v-2.39Z"/>
      <path class="cls-37" d="m150.12,258.58v1.27c0,.47-.02.81-.07,1.02-.05.22-.15.41-.3.59-.16.18-.35.31-.6.38-.24.07-.52.1-.84.08-.35-.02-.65-.08-.89-.18-.24-.09-.43-.22-.57-.39-.14-.16-.23-.36-.29-.58-.06-.22-.09-.56-.09-1v-1.33c0-.48.05-.86.16-1.12.1-.26.29-.47.57-.61.27-.15.62-.2,1.05-.18.36.02.66.1.92.22.26.12.45.27.59.45.14.18.23.36.29.54.05.18.08.46.08.83m-1.59-.49c0-.27-.01-.43-.04-.51-.03-.07-.09-.11-.19-.12-.09,0-.16.02-.19.09-.03.07-.05.23-.05.5v2.34c0,.25.02.41.05.48.03.08.09.12.19.12.09,0,.16-.02.19-.09.03-.07.05-.21.05-.44v-2.4Z"/>
      <path class="cls-37" d="m152.36,255.75v6.34c-.55-.03-1.09-.07-1.64-.1v-6.34c.55.03,1.09.07,1.64.1"/>
      <path class="cls-37" d="m158.12,259.04v1.27c0,.47-.02.81-.07,1.03-.05.22-.15.41-.3.6-.16.18-.35.31-.6.39-.24.08-.52.11-.84.09-.35-.02-.65-.07-.89-.16-.24-.09-.43-.22-.57-.38-.14-.16-.23-.36-.29-.58-.06-.22-.09-.56-.09-1v-1.33c0-.48.05-.86.16-1.12.11-.27.29-.47.57-.62.27-.15.62-.21,1.05-.19.36.02.66.09.92.21.26.12.45.27.59.44.14.18.23.36.29.54.05.18.08.46.08.83m-1.59-.48c0-.27-.01-.43-.04-.51s-.09-.11-.19-.11c-.09,0-.16.03-.19.09-.03.07-.05.23-.05.5v2.35c0,.25.02.41.05.48.03.08.09.12.19.12.09,0,.16-.03.19-.09.03-.07.05-.21.05-.44v-2.4Z"/>
      <path class="cls-37" d="m160.76,256.2v.8c-.33-.02-.52,0-.58.02-.06.03-.09.11-.09.25v.17l.67.03v.82c-.13,0-.25-.01-.38-.02v4.26c-.53-.03-1.06-.05-1.59-.08v-4.25c-.11,0-.22-.01-.33-.02v-.82c.11,0,.22.01.33.02,0-.34.01-.57.04-.68.02-.11.08-.21.18-.3.09-.09.22-.15.39-.19.17-.04.43-.05.78-.03.19,0,.39.02.58.03"/>
      <path class="cls-37" d="m164.24,256.35v1.5c.13-.15.28-.25.44-.32.16-.07.34-.1.53-.09.22,0,.41.05.57.12.16.07.28.18.37.3.08.13.13.25.15.37.02.12.03.37.03.75v2.35c0,.38-.03.67-.08.85-.05.18-.17.34-.36.47-.19.13-.41.19-.67.18-.19,0-.36-.06-.52-.14-.16-.09-.31-.22-.44-.38-.03.13-.07.26-.1.39-.5-.02-.99-.04-1.49-.07v-6.35c.53.02,1.06.05,1.59.07m.48,2.65c0-.27-.02-.45-.05-.53-.03-.08-.1-.13-.2-.13-.1,0-.16.03-.19.1-.03.07-.04.25-.04.54v2.24c0,.28.02.46.05.54.03.08.1.12.2.13.1,0,.16-.03.2-.11.03-.08.05-.27.05-.58v-2.19Z"/>
      <path class="cls-37" d="m170.57,257.73v5.21c-.54-.02-1.08-.04-1.62-.06,0-.14.02-.29.03-.43-.11.17-.25.3-.41.38-.16.08-.35.12-.56.11-.24,0-.44-.06-.6-.15-.16-.09-.27-.21-.35-.35-.07-.14-.12-.29-.14-.44-.02-.15-.03-.45-.03-.9v-3.51c.53.02,1.06.04,1.59.06v3.55c0,.41.01.65.04.72.03.08.09.12.2.12.12,0,.19-.03.21-.11.02-.08.03-.33.03-.76v-3.51c.53.02,1.06.04,1.59.05"/>
      <path class="cls-37" d="m174.48,259.51c-.47-.01-.94-.03-1.41-.04v-.28c0-.24-.01-.39-.04-.46-.03-.06-.1-.1-.21-.1-.09,0-.16.02-.2.08-.05.06-.07.15-.07.26,0,.16.01.28.03.35.02.08.09.16.2.25.11.09.34.23.69.41.46.24.77.46.91.66.14.2.22.49.22.87,0,.42-.06.74-.17.96-.11.21-.29.37-.55.48-.26.11-.57.16-.94.15-.4-.01-.75-.09-1.04-.22-.29-.13-.49-.31-.59-.53-.11-.22-.16-.54-.16-.98v-.25c.47.01.94.03,1.41.04v.33c0,.28.02.46.05.55.03.08.11.13.21.13.11,0,.19-.02.24-.08.05-.05.07-.17.07-.35,0-.25-.03-.41-.09-.47-.06-.06-.37-.26-.93-.59-.47-.28-.75-.52-.86-.74-.1-.22-.15-.47-.15-.77,0-.42.06-.72.17-.92s.3-.34.56-.44c.26-.1.57-.14.92-.13.35.01.64.06.89.16.24.09.43.22.56.36.13.15.21.28.24.41.03.12.04.32.04.58v.3Z"/>
      <path class="cls-37" d="m176.75,256.75v.83c-.55-.01-1.09-.03-1.64-.04v-.83c.55.01,1.09.03,1.64.04m0,1.15v5.22c-.55-.01-1.09-.03-1.64-.04v-5.22c.55.01,1.09.03,1.64.04"/>
      <path class="cls-37" d="m179.03,257.95c0,.16-.02.32-.03.48.12-.19.26-.33.42-.42.17-.09.36-.14.58-.13.27,0,.5.07.67.2.17.13.29.3.34.49.05.2.07.52.07.98v3.66c-.53,0-1.06-.02-1.59-.03v-3.62c0-.36-.01-.58-.04-.66-.02-.08-.09-.12-.2-.12-.11,0-.18.04-.21.13-.03.09-.04.33-.04.73v3.53c-.53-.01-1.06-.02-1.59-.03v-5.22c.54.01,1.08.02,1.62.03"/>
      <path class="cls-37" d="m185.32,260.74c-.69,0-1.38-.02-2.06-.02v1.13c0,.24.02.39.05.46.03.07.1.1.2.11.12,0,.2-.04.24-.13.04-.09.06-.27.06-.52v-.69c.5,0,1.01.01,1.51.02v.39c0,.32-.02.57-.06.74-.04.17-.14.36-.29.55-.15.2-.34.34-.57.44s-.52.14-.87.14c-.34,0-.63-.06-.89-.16-.26-.1-.46-.24-.6-.41-.14-.17-.24-.36-.3-.56-.06-.2-.08-.5-.08-.89v-1.52c0-.46.06-.82.19-1.08.12-.26.33-.46.61-.6.28-.14.6-.2.97-.2.45,0,.82.09,1.11.27.29.17.5.4.61.68.12.28.18.67.18,1.18v.69Zm-1.6-.87v-.38c0-.27-.01-.44-.04-.52-.03-.08-.09-.12-.18-.12-.11,0-.18.03-.21.1-.03.07-.04.25-.04.54v.38c.16,0,.31,0,.47,0"/>
      <path class="cls-37" d="m189.18,259.74c-.47,0-.94,0-1.41,0v-.28c0-.24-.01-.39-.04-.46s-.1-.1-.21-.1c-.09,0-.16.03-.2.09-.04.06-.07.15-.07.27,0,.16.01.28.03.35.02.08.09.16.2.25.11.09.34.22.69.39.46.23.77.44.91.64.14.2.22.49.22.87,0,.43-.06.75-.17.96-.11.22-.3.38-.55.5-.26.12-.57.17-.94.17-.4,0-.75-.07-1.04-.2-.29-.13-.49-.3-.59-.52-.11-.22-.16-.54-.16-.98v-.25c.47,0,.94,0,1.41.01v.33c0,.28.02.46.05.55.04.08.11.13.21.13.11,0,.19-.03.24-.08.04-.06.07-.18.07-.36,0-.25-.03-.41-.09-.47-.06-.06-.37-.25-.93-.57-.47-.27-.75-.51-.86-.72-.1-.22-.15-.47-.15-.76,0-.42.06-.72.17-.92.11-.2.3-.35.56-.45.26-.11.57-.16.92-.15.35,0,.64.05.89.14.24.09.43.21.56.35.13.15.21.28.24.4.03.12.04.32.04.58v.3Z"/>
      <path class="cls-37" d="m193.06,259.74c-.47,0-.94,0-1.41,0v-.28c0-.24-.01-.4-.04-.46-.03-.06-.1-.1-.21-.1-.09,0-.16.03-.2.09-.04.06-.07.15-.07.27,0,.16.01.28.03.35.02.08.09.16.2.25.11.09.34.22.69.39.46.23.77.44.91.64.14.2.22.49.22.87,0,.43-.06.75-.17.96-.11.22-.29.38-.55.5-.26.12-.57.18-.94.18-.4,0-.75-.06-1.04-.19-.29-.13-.49-.3-.59-.51-.11-.22-.16-.54-.16-.98v-.25c.47,0,.94,0,1.41,0v.33c0,.28.02.46.05.55.04.08.11.13.21.13.11,0,.19-.03.24-.08.04-.06.07-.18.07-.36,0-.25-.03-.41-.09-.47-.06-.06-.37-.25-.93-.56-.47-.26-.75-.5-.86-.72-.1-.21-.15-.47-.15-.76,0-.42.05-.73.17-.92.11-.2.3-.35.56-.46.26-.11.57-.16.92-.16.35,0,.64.04.89.13.24.09.43.2.56.35.13.14.21.28.24.4.03.12.04.32.04.58v.3Z"/>
      <path class="cls-37" d="m196.62,260.08c-.5,0-1,0-1.5,0v-.35c0-.4.05-.72.14-.94.09-.22.28-.42.56-.58.28-.17.65-.26,1.1-.26.54,0,.95.09,1.22.28.27.19.44.42.49.7.06.28.08.85.08,1.71v2.63c-.52,0-1.03,0-1.55.01v-.47c-.1.19-.22.33-.38.42s-.34.14-.55.14c-.28,0-.54-.08-.77-.23-.23-.16-.35-.5-.35-1.03v-.43c0-.39.06-.66.19-.8.12-.14.43-.31.92-.5.52-.21.8-.35.84-.42.04-.07.06-.22.06-.43,0-.27-.02-.45-.06-.53-.04-.08-.11-.12-.2-.12-.11,0-.18.04-.2.11-.03.07-.04.25-.04.54v.55Zm.5.71c-.26.19-.4.35-.44.47-.04.13-.06.31-.06.55,0,.27.02.44.05.52.04.08.11.12.21.12.1,0,.16-.03.2-.09.03-.06.05-.22.05-.49v-1.08Z"/>
      <path class="cls-37" d="m200.97,258.01c0,.16-.02.32-.03.48.12-.19.26-.34.42-.44.17-.1.36-.15.58-.15.27,0,.5.06.67.18.17.13.29.29.34.48.05.2.07.52.07.98v3.67c-.53,0-1.06.02-1.59.02v-3.63c0-.36-.01-.58-.04-.66-.02-.08-.09-.12-.2-.12-.11,0-.18.05-.21.14-.03.09-.04.33-.04.73v3.54c-.53,0-1.06.01-1.59.02v-5.24c.54,0,1.08-.01,1.62-.02"/>
      <path class="cls-37" d="m207.29,256.74v6.4c-.53.01-1.06.02-1.59.03v-.38c-.15.16-.31.28-.48.37-.17.08-.34.13-.53.13-.25,0-.46-.06-.64-.18-.18-.13-.3-.28-.35-.45-.05-.17-.08-.45-.08-.84v-2.45c0-.4.03-.69.08-.86.05-.17.17-.32.35-.45.18-.13.4-.2.66-.2.2,0,.38.03.54.1.16.07.31.17.45.31v-1.49c.53-.01,1.06-.02,1.59-.04m-1.59,2.51c0-.19-.02-.32-.05-.39-.03-.07-.1-.1-.2-.1-.09,0-.16.03-.19.09-.03.06-.05.19-.05.4v2.57c0,.21.02.35.05.42.03.07.09.1.18.1.1,0,.17-.04.21-.12.03-.08.05-.26.05-.55v-2.43Z"/>
      <path class="cls-37" d="m209.49,256.68c.41-.01.83-.02,1.24-.03.8-.02,1.34,0,1.63.06.28.07.5.18.65.34.15.16.24.35.28.55.04.21.05.61.05,1.22v2.24c0,.58-.03.96-.08,1.16-.05.2-.15.35-.28.46-.13.11-.3.2-.5.24-.2.05-.49.08-.89.09-.7.02-1.4.04-2.09.06v-6.4Zm1.66,1.05v4.21c.24,0,.39-.06.44-.16.05-.1.08-.36.08-.79v-2.49c0-.29,0-.48-.03-.56-.02-.08-.06-.14-.13-.18-.07-.04-.19-.05-.37-.05"/>
      <path class="cls-37" d="m215.63,256.49v.83c-.55.02-1.09.04-1.64.06v-.83c.55-.02,1.09-.04,1.64-.06m0,1.16v5.25c-.55.02-1.09.04-1.64.06v-5.25c.55-.02,1.09-.04,1.64-.06"/>
      <path class="cls-37" d="m219.91,257.48v4.05c0,.55-.01.9-.04,1.06-.03.16-.11.33-.27.52-.15.18-.36.33-.64.43-.27.1-.61.17-1.03.18-.51.02-.91-.05-1.22-.21-.31-.16-.47-.5-.48-1,.52-.02,1.03-.04,1.55-.06,0,.23.08.35.25.34.12,0,.2-.04.24-.12.04-.07.06-.22.06-.45v-.4c-.14.13-.28.23-.43.3-.15.07-.31.11-.48.11-.29.01-.52-.04-.71-.15-.19-.11-.31-.26-.38-.44-.07-.19-.1-.45-.1-.8v-1.91c0-.5.09-.86.27-1.09.18-.23.45-.35.82-.36.2,0,.38.03.55.1.16.08.31.19.44.35.04-.13.08-.27.11-.4.49-.02.99-.04,1.48-.06m-1.6,1.46c0-.24-.01-.39-.04-.46-.03-.07-.09-.1-.18-.09-.09,0-.16.04-.2.12-.04.08-.06.23-.06.45v1.76c0,.23.01.39.04.46.03.07.09.1.18.1.11,0,.17-.05.21-.13.03-.09.05-.28.05-.58v-1.63Z"/>
      <path class="cls-37" d="m222.19,256.22v.84c-.55.03-1.09.05-1.64.07v-.84c.55-.02,1.09-.05,1.64-.07m0,1.16v5.26c-.55.02-1.09.05-1.64.07v-5.25c.55-.02,1.09-.05,1.64-.07"/>
      <path class="cls-37" d="m224.53,256.57v.83l.43-.02v.83l-.43.02v2.81c0,.35.02.54.05.58.04.04.18.05.44.04v.85c-.21.01-.43.02-.64.03-.36.02-.62.01-.78,0-.16-.02-.29-.09-.41-.19-.12-.1-.19-.23-.22-.37-.03-.14-.04-.47-.04-.99v-2.67c-.11,0-.23.01-.34.02v-.83c.11,0,.23-.01.34-.02v-.83c.53-.03,1.06-.05,1.6-.08"/>
      <path class="cls-37" d="m226.81,259.19c-.5.03-1,.05-1.49.08v-.35c0-.41.05-.72.14-.95.09-.23.28-.43.56-.61.28-.18.65-.29,1.1-.31.54-.03.95.04,1.22.22.27.18.44.4.49.68.05.28.08.85.08,1.72v2.64c-.52.03-1.03.06-1.55.08v-.47c-.1.19-.22.34-.38.44-.15.1-.34.16-.55.17-.28.01-.53-.05-.77-.2-.23-.15-.35-.48-.35-1.02v-.43c0-.39.06-.66.19-.81.12-.15.43-.33.92-.55.52-.23.8-.39.84-.46.04-.07.06-.22.06-.44,0-.27-.02-.45-.06-.53-.04-.08-.11-.12-.2-.11-.11,0-.17.04-.2.12-.03.07-.04.25-.04.55v.55Zm.5.7c-.25.2-.4.37-.44.49-.04.13-.06.31-.06.55,0,.27.02.45.05.52.04.08.11.11.21.11.1,0,.16-.04.2-.1.03-.06.05-.23.05-.49v-1.08Z"/>
      <path class="cls-37" d="m232.97,256.8c-.22.71-.43,1.42-.65,2.14.28,1.04.56,2.08.84,3.12-.51.03-1.02.06-1.53.09-.17-.75-.33-1.51-.5-2.26,0,.76,0,1.53,0,2.29-.53.03-1.06.06-1.59.09v-6.42c.53-.03,1.06-.06,1.59-.09,0,.9,0,1.8,0,2.7l.5-1.57c.45-.03.89-.05,1.34-.08"/>
      <path class="cls-37" d="m241.27,255.08c-.25,2.16-.49,4.32-.74,6.49-.69.05-1.38.1-2.07.15-.19-.97-.36-2.09-.5-3.34-.07.54-.22,1.68-.46,3.4-.69.05-1.37.09-2.06.14-.25-2.13-.5-4.25-.74-6.38.54-.03,1.08-.07,1.61-.11.06.74.12,1.49.18,2.23.06.72.11,1.44.17,2.16.06-1.13.21-2.61.46-4.44.57-.04,1.15-.08,1.72-.12.02.19.08.89.18,2.11.06.81.12,1.62.18,2.43.09-1.56.25-3.1.46-4.6.54-.04,1.07-.08,1.61-.12"/>
      <path class="cls-37" d="m245.23,257.78v1.29c0,.47-.02.82-.07,1.05-.05.23-.15.44-.3.64-.15.2-.35.36-.6.47-.24.11-.52.18-.84.2-.35.03-.65.01-.89-.05-.24-.06-.43-.16-.57-.31-.14-.15-.23-.33-.29-.55-.06-.22-.09-.55-.09-1v-1.35c0-.49.05-.88.16-1.16.1-.28.29-.52.57-.71.27-.19.62-.3,1.05-.33.36-.03.66,0,.92.09.26.09.45.21.59.37.14.16.23.33.29.51.05.18.08.46.08.83m-1.59-.27c0-.27-.01-.44-.04-.51-.03-.07-.09-.1-.18-.09s-.16.05-.19.12c-.03.07-.05.24-.05.51v2.38c0,.25.02.41.05.48.03.07.09.11.18.1.09,0,.16-.05.19-.12.03-.07.05-.22.05-.45v-2.43Z"/>
      <path class="cls-37" d="m247.42,255.75c-.02.23-.04.47-.06.7.23-.52.57-.81,1-.87v1.86c-.29.02-.51.08-.64.17-.14.09-.22.21-.25.35-.03.14-.05.47-.05.98v2.08c-.53.04-1.06.09-1.59.13v-5.28c.53-.04,1.06-.09,1.59-.13"/>
      <path class="cls-37" d="m250.44,254.33v6.44c-.55.05-1.09.09-1.64.14v-6.44c.55-.05,1.09-.09,1.64-.14"/>
      <path class="cls-37" d="m254.7,253.94v6.45c-.53.05-1.06.1-1.59.15v-.38c-.15.17-.31.31-.48.4-.17.1-.34.15-.53.17-.25.02-.46-.02-.64-.14-.18-.12-.3-.26-.35-.42-.05-.17-.08-.45-.08-.84v-2.47c0-.41.03-.7.08-.87.05-.17.17-.33.35-.48.18-.14.4-.23.66-.25.2-.02.38,0,.54.06.16.06.31.15.45.28v-1.5c.53-.05,1.06-.1,1.59-.15m-1.59,2.64c0-.19-.02-.32-.05-.38-.03-.06-.1-.09-.19-.08-.09,0-.16.04-.19.11-.03.06-.05.2-.05.4v2.59c0,.21.02.35.05.42.03.06.09.09.18.08.1,0,.17-.05.2-.13.03-.08.05-.27.05-.56v-2.44Z"/>
    </g>
  </g>
  <g>
    <path class="cls-66" d="m357.7,239.29c-10.48,0-18.92-3.27-25.32-9.8-6.4-6.53-9.59-15.67-9.59-27.42v-66.86c0-14.05,2.79-24.81,8.36-32.28,5.57-7.46,14.64-11.2,27.21-11.2,6.86,0,12.97,1.26,18.32,3.79,5.35,2.53,9.56,6.3,12.64,11.32,3.07,5.02,4.61,11.35,4.61,18.98v25.03h-28.82v-21.41c0-4.34-.55-7.26-1.65-8.77-1.1-1.51-2.8-2.26-5.1-2.26-2.69,0-4.5.98-5.43,2.92-.93,1.95-1.4,4.54-1.4,7.78v72.54c0,4.01.59,6.83,1.77,8.48,1.18,1.65,2.87,2.47,5.06,2.47,2.47,0,4.21-1.02,5.23-3.05,1.02-2.03,1.52-4.67,1.52-7.9v-26.1h29.15v27.42c0,12.74-3.21,21.97-9.63,27.71-6.42,5.74-15.4,8.6-26.92,8.6Z"/>
    <path class="cls-66" d="m403.89,237.97V93.06h57.96v28.24h-28.82v23.05h27.34v27.91h-27.34v65.71h-29.15Z"/>
    <path class="cls-66" d="m471.16,237.97V93.06h38.29c8.01,0,14.37,1.78,19.06,5.35,4.69,3.57,8.05,8.65,10.09,15.23,2.03,6.59,3.05,14.44,3.05,23.55s-.85,16.43-2.55,22.93c-1.7,6.5-4.73,11.54-9.1,15.11-4.36,3.57-10.55,5.35-18.57,5.35h-11.77v57.39h-28.49Zm28.49-83.41h1.65c5.38,0,8.67-1.51,9.88-4.53,1.21-3.02,1.81-7.46,1.81-13.34,0-5.49-.59-9.73-1.77-12.72-1.18-2.99-3.97-4.49-8.36-4.49h-3.21v35.08Z"/>
    <path class="cls-66" d="m588.82,196.06v-19.1h42.49v19.1h-42.49Z"/>
    <path class="cls-66" d="m716.03,239.29c-10.49,0-18.92-3.27-25.32-9.8-6.39-6.53-9.59-15.67-9.59-27.42v-66.86c0-14.05,2.79-24.81,8.36-32.28,5.57-7.46,14.64-11.2,27.21-11.2,6.86,0,12.97,1.26,18.32,3.79,5.35,2.53,9.56,6.3,12.64,11.32,3.07,5.02,4.61,11.35,4.61,18.98v25.03h-28.82v-21.41c0-4.34-.55-7.26-1.65-8.77-1.1-1.51-2.8-2.26-5.1-2.26-2.69,0-4.5.98-5.43,2.92-.93,1.95-1.4,4.54-1.4,7.78v72.54c0,4.01.59,6.83,1.77,8.48,1.18,1.65,2.87,2.47,5.06,2.47,2.47,0,4.21-1.02,5.23-3.05,1.01-2.03,1.52-4.67,1.52-7.9v-26.1h29.15v27.42c0,12.74-3.21,21.97-9.63,27.71-6.42,5.74-15.4,8.6-26.92,8.6Z"/>
    <path class="cls-66" d="m762.22,237.97V93.06h44.13l12.19,88.35,12.1-88.35h44.54v144.91h-26.51v-104.4l-16.63,104.4h-26.02l-17.62-104.4v104.4h-26.18Z"/>
    <path class="cls-66" d="m888.03,237.97V93.06h39.85c10.43,0,18.28,2.9,23.55,8.69,5.27,5.79,7.9,14.26,7.9,25.4v67.85c0,13.72-2.4,24.32-7.2,31.78-4.8,7.47-13.21,11.2-25.24,11.2h-38.86Zm29.15-25.61h5.02c5.32,0,7.99-2.58,7.99-7.74v-74.76c0-4.83-.65-7.95-1.93-9.35-1.29-1.4-3.91-2.1-7.86-2.1h-3.21v93.95Z"/>
  </g>
</svg>